<?xml version="1.0" encoding="UTF-8"?>
<!DOCTYPE svg PUBLIC "-//W3C//DTD SVG 1.1//EN" "http://www.w3.org/Graphics/SVG/1.1/DTD/svg11.dtd">
<!-- Creator: CorelDRAW X7 -->
<svg xmlns="http://www.w3.org/2000/svg" xml:space="preserve" version="1.1" style="shape-rendering:geometricPrecision; text-rendering:geometricPrecision; image-rendering:optimizeQuality; fill-rule:evenodd; clip-rule:evenodd" viewBox="0 0 13000 1732" xmlns:xlink="http://www.w3.org/1999/xlink">
 <defs>
  <style type="text/css">
   <![CDATA[
    .fil0 {fill:#317785;fill-rule:nonzero}
   ]]>
  </style>
 </defs>
 <g id="parapix_x0020_1">
  <metadata id="CorelCorpID_0Corel-Layer"/>
  <path class="fil0" d="M3203 1025l-867 0 -104 209 1076 0 -105 -209zm5500 700l-135 0 0 -1723 135 0 0 136 0 90 0 121 349 0 0 135 -349 0 0 135 349 0 0 136 -349 0 0 135 349 0 0 135 -349 0 0 126 0 85 0 136 0 52 0 301zm-4347 0l-135 0 0 -1723 135 0 666 0c95,0 184,18 267,54 83,36 156,85 218,147 62,62 110,135 146,218 36,83 54,172 54,265 0,95 -18,184 -54,267 -36,84 -85,156 -146,218 -62,62 -135,111 -218,147 -84,36 -173,54 -268,54l-665 0 0 -136 666 0c76,0 147,-14 214,-43 68,-29 126,-68 175,-117 49,-49 88,-107 117,-173 29,-67 44,-138 44,-215 0,-75 -15,-146 -44,-213 -29,-67 -68,-126 -117,-176 -49,-49 -107,-89 -175,-118 -67,-29 -138,-43 -214,-43l-666 0 0 -136 0 136 0 90c0,451 0,450 0,1008l0 136 0 52 0 301zm-3545 -1587l0 1098c72,-1 140,-15 205,-43 67,-29 125,-68 174,-117 49,-49 89,-107 118,-173 29,-67 43,-138 43,-215 0,-75 -14,-146 -43,-213 -29,-67 -69,-126 -118,-176 -49,-49 -107,-89 -174,-118 -65,-28 -133,-42 -205,-43zm-135 1098c0,-411 0,-822 0,-1234l126 0c94,0 183,18 267,54 83,36 155,85 217,147 62,62 111,135 147,218 36,83 54,172 54,265 0,95 -18,184 -54,267 -36,84 -85,156 -147,218 -62,62 -135,111 -218,147 -83,36 -173,54 -267,54l-530 0 0 -136 405 0zm-136 -1098l-405 0c0,529 0,1058 0,1587l-135 0 0 -1723 540 0 0 136zm8299 -136l531 0c94,0 183,18 267,54 83,36 155,85 217,147 62,62 111,135 147,218 35,83 53,172 53,265 0,95 -18,184 -53,267 -36,84 -85,156 -147,218 -62,62 -135,111 -218,147 -84,36 -173,54 -267,54l-530 0 0 -136 531 0c75,0 146,-14 213,-43 68,-29 126,-68 175,-117 49,-49 88,-107 117,-173 30,-67 44,-138 44,-215 0,-75 -14,-146 -44,-213 -29,-67 -68,-126 -117,-176 -49,-49 -107,-89 -175,-118 -67,-29 -138,-43 -213,-43l-531 0 0 -136zm-6436 888l732 0 -366 -732 -366 732zm2332 -271l0 136 -136 0 0 -136 136 0zm270 0l0 136 -135 0 0 -136 135 0zm271 0l0 136 -136 0 0 -136 136 0zm2270 406l-867 0 -105 209 1076 0 -104 -209zm-800 -135l732 0 -367 -732 -365 732zm-4760 835l-151 0 858 -1720 151 0 863 1720 -152 0 -179 -355 -1211 0 -179 355zm3572 0l-217 -281 2 -1c42,-18 82,-40 119,-66l270 348 -174 0zm771 0l-151 0 857 -1720 152 0 862 1720 -151 0 -179 -355 -1211 0 -179 355zm4494 0l-135 0 0 -1718 135 0 0 1718zm2078 7l-711 -766 -704 761 -99 -91 714 -769 -711 -771 98 -91 702 759 2 -2 705 -762 101 94 -714 771 716 775 -99 92z"/>
 </g>
</svg>
